<?xml version="1.0" standalone="no"?>
<!DOCTYPE svg PUBLIC "-//W3C//DTD SVG 20010904//EN"
 "http://www.w3.org/TR/2001/REC-SVG-20010904/DTD/svg10.dtd">
<svg version="1.0" xmlns="http://www.w3.org/2000/svg"
 width="260.000000pt" height="260.000000pt" viewBox="0 0 260.000000 260.000000"
 preserveAspectRatio="xMidYMid meet">
<metadata>
Created by potrace 1.11, written by Peter Selinger 2001-2013
</metadata>
<g transform="translate(0.000000,260.000000) scale(0.100000,-0.100000)"
fill="#000000" stroke="none">
<path d="M850 2321 c0 -16 11 -18 125 -25 149 -9 191 -14 252 -32 49 -13 53
-17 63 -55 12 -45 8 -1493 -5 -1564 -34 -199 -125 -278 -310 -271 -161 5 -291
102 -308 230 -8 59 -1 68 36 46 70 -43 181 -34 257 21 125 91 103 299 -40 367
-51 25 -154 22 -205 -5 -106 -56 -158 -160 -151 -299 7 -133 54 -219 166 -306
85 -65 140 -82 270 -83 78 0 139 6 192 19 241 58 416 232 474 472 14 60 17
152 19 709 1 352 3 650 4 662 2 37 38 61 110 72 72 12 166 20 248 20 42 1 51
4 47 16 -5 13 -84 15 -625 15 -380 0 -619 -4 -619 -9z"/>
</g>
</svg>
